# xmcd
#
# Track frame offsets:
#	150
#	13313
#	33665
#	56773
#	72093
#	83495
#	98633
#	116065
#	132455
#	145790
#
# Disc length: 2254 seconds
#
# Revision: 1
# Processed by: cddbd v1.5.2PL0 Copyright (c) Steve Scherf et al.
# Submitted via: audiograbber 1.83.01
#
DISCID=8908cc0a
DTITLE=Jo Ann and Monte - Alaska, Where We Live
DYEAR=1993
DGENRE=Country
TTITLE0=Where We Live
TTITLE1=The Fishin' Song
TTITLE2=Valdez
TTITLE3=September In The Last Frontier
TTITLE4=Alaska Flag Song
TTITLE5=Rainbows and Women
TTITLE6=You Got To Be Crazy
TTITLE7=Tom's Song
TTITLE8=Alaska, I'm Comin' Home
TTITLE9=Greatland Symphony
EXTD=
EXTT0=
EXTT1=
EXTT2=
EXTT3=
EXTT4=
EXTT5=
EXTT6=
EXTT7=
EXTT8=
EXTT9=
PLAYORDER=
